<svg width="1920" height="1695" viewBox="0 0 1920 1695" fill="none" xmlns="http://www.w3.org/2000/svg">
<g clip-path="url(#clip0)">
<rect width="1920" height="1695" fill="#222831"/>
<path d="M-5.84974e-09 87L331.5 87" stroke="#FFD369" stroke-opacity="0.6" stroke-width="5"/>
<ellipse cx="-30.4769" cy="1130.94" rx="252.523" ry="182.014" fill="#393E46" fill-opacity="0.5"/>
<g style="mix-blend-mode:overlay">
<ellipse cx="160.622" cy="1423.6" rx="404.378" ry="271.399" fill="url(#paint0_linear)" fill-opacity="0.06"/>
</g>
<line y1="-1" x2="409.603" y2="-1" transform="matrix(0.925286 0.37927 -0.386171 0.922427 1736 825.236)" stroke="#FFD369" stroke-opacity="0.05" stroke-width="2"/>
<line y1="-1" x2="259.418" y2="-1" transform="matrix(0.963697 0.267 -0.272282 0.962218 857 817.32)" stroke="#FFD369" stroke-opacity="0.05" stroke-width="2"/>
<line y1="-1" x2="901.591" y2="-1" transform="matrix(0.938341 0.345711 -0.352185 0.93593 195 354.238)" stroke="#FFD369" stroke-opacity="0.05" stroke-width="2"/>
<line y1="-1.5" x2="1087.06" y2="-1.5" transform="matrix(-0.749727 0.661747 -0.669579 -0.742741 788 45.5166)" stroke="#FFD369" stroke-opacity="0.05" stroke-width="3"/>
<line y1="-1" x2="506.575" y2="-1" transform="matrix(0.927799 0.37308 -0.379906 0.925025 1645 193.94)" stroke="#FFD369" stroke-opacity="0.05" stroke-width="2"/>
<line y1="-1" x2="835.328" y2="-1" transform="matrix(0.336395 0.941721 -0.943933 0.330136 1834 193.94)" stroke="#FFD369" stroke-opacity="0.05" stroke-width="2"/>
<ellipse cx="1730.5" cy="255.289" rx="265.5" ry="255.289" fill="url(#paint1_linear)" fill-opacity="0.11"/>
</g>
<defs>
<linearGradient id="paint0_linear" x1="160.622" y1="1152.2" x2="160.622" y2="1695" gradientUnits="userSpaceOnUse">
<stop stop-color="#FFD369"/>
<stop offset="0.384374" stop-color="#FFD369" stop-opacity="0.615626"/>
<stop offset="1" stop-color="#FFD369" stop-opacity="0"/>
</linearGradient>
<linearGradient id="paint1_linear" x1="1730.5" y1="0" x2="1730.5" y2="510.578" gradientUnits="userSpaceOnUse">
<stop stop-color="white"/>
<stop offset="0.769809" stop-color="#FFD369" stop-opacity="0"/>
</linearGradient>
<clipPath id="clip0">
<rect width="1920" height="1695" fill="white"/>
</clipPath>
</defs>
</svg>
